<?xml version="1.0" encoding="utf-8"?>
<!-- Generator: Adobe Illustrator 27.9.5, SVG Export Plug-In . SVG Version: 9.03 Build 54986)  -->
<svg version="1.1" id="LAYER" xmlns="http://www.w3.org/2000/svg" xmlns:xlink="http://www.w3.org/1999/xlink" x="0px" y="0px"
	 viewBox="0 0 340.2 323.1" style="enable-background:new 0 0 340.2 323.1;" xml:space="preserve">
<style type="text/css">
	.st0{fill:#FED817;}
	.st1{fill:#FFFFFF;}
	.st2{display:none;}
	.st3{display:none;fill:#FFFFFF;}
	.st4{fill:#FDFDFD;}
	.st5{fill:#FEAF01;}
	.st6{fill:#F9D416;}
	.st7{fill:#110F08;}
	.st8{fill:#FEE35D;}
	.st9{fill:#FE890E;}
</style>
<path id="BODY_x5F_COLOR_00000172409209553329386750000013206378757220045209_" class="st0" d="M268.7,246.8
	c-12,3.9-22.9,10.6-35.2,13.9c-8.7,2.3-17.5,4.1-26.4,5.7c-5.9,1.1-10.5,1.6-11.9-4.1c-0.5-2-0.7-4.8-1.4-6.7
	c-1.6-4.5-1.6-8.6-6.9-8c-5.1,0.6-8,4-9.2,8.7c-0.6,2.5-0.8,5.1-0.7,7.7c0,3.1-1.4,4.2-4.4,4.3c-27.1,0.9-54.1-0.1-80.4-7.5
	c-3.8-1.1-7.5-2.6-10.9-4.7c-3.6-2.2-6-4.2-5-9.4c1.1-5.2-2.4-9.4-7.1-11.5c-5.3-2.5-7.1,1.4-11.2,5.1c-5,4.6-7.7,2.5-12.7-2.2
	c-28-26.5-32.5-59.3-23.9-94.4c12.4-50.7,44.3-79,98.1-89.9c4.9-1,10,1.4,12.1,5.2c11.6,20.8,34,24.9,52.6,9.8
	c6.9-5.6,9.6-12.3,10.8-21.1c0.5-3.5,4.2-6.7,9.5-6.9c5.1-0.2,6.6,7.2,8,11.6c6.6,22,31.5,26.4,51.6,14.8c4.8-2.8,10.6-0.4,14.5,3.1
	c4.2,3.8,9,7,13.4,10.7c8.9,7.4,14.5,16.9,18.8,27.5c7.8,19.1,15.2,38.2,14.9,59.3c0.5,22.7-8.1,41.7-24.1,57.5
	C292,234.9,281.7,242.6,268.7,246.8z"/>
<circle class="st1" cx="161.5" cy="42.5" r="28.5"/>
<circle class="st1" cx="239.5" cy="42.5" r="28.5"/>
<g id="EYES_COLOR" class="st2">
</g>
<path id="BODY_x5F_COLOR" class="st3" d="M-110.6,246.7c-12,3.9-22.9,10.6-35.2,13.9c-8.7,2.3-17.5,4.1-26.4,5.7
	c-5.9,1.1-10.5,1.6-11.9-4.1c-0.5-2-0.7-4.8-1.4-6.7c-1.6-4.5-1.6-8.6-6.9-8c-5.1,0.6-8,4-9.2,8.7c-0.6,2.5-0.8,5.1-0.7,7.7
	c0,3.1-1.4,4.2-4.4,4.3c-27.1,0.9-54.1-0.1-80.4-7.5c-3.8-1.1-7.5-2.6-10.9-4.7c-3.6-2.2-6-4.2-5-9.4c1.1-5.2-2.4-9.4-7.1-11.5
	c-5.3-2.5-7.1,1.4-11.2,5.1c-5,4.6-7.7,2.5-12.7-2.2c-28-26.5-32.5-59.3-23.9-94.4c12.4-50.7,44.3-79,98.1-89.9
	c4.9-1,10,1.4,12.1,5.2c11.6,20.8,34,24.9,52.6,9.8c6.9-5.6,9.6-12.3,10.8-21.1c0.5-3.5,4.2-6.7,9.5-6.9c5.1-0.2,6.6,7.2,8,11.6
	c6.6,22,31.5,26.4,51.6,14.8c4.8-2.8,10.6-0.4,14.5,3.1c4.2,3.8,9,7,13.4,10.7c8.9,7.4,14.5,16.9,18.8,27.5
	c7.8,19.1,15.2,38.2,14.9,59.3c0.5,22.7-8.1,41.7-24.1,57.5C-87.3,234.7-97.6,242.4-110.6,246.7z"/>
<g id="o8Swkq.tif">
	<g>
		<path class="st4" d="M-215,179.8c0-8.7,0-17.3,0-26c0-0.7,0.1-0.9,0.9-0.9c31.4,0,62.9,0,94.3,0c0.7,0,0.9,0.1,0.9,0.9
			c0,31.4,0,62.9,0,94.3c0,0.7-0.1,0.9-0.9,0.9c-8.6,0-17.1,0-25.7,0c-0.1-3-0.1-5.9,0-8.9c0.1,0,0.2,0,0.2,0c2.6,0,5.2,0,7.9,0.1
			c0.7,0,0.7-0.4,0.7-0.9c0-2.7,0-5.3,0-8c2.6,0,5.3,0,7.9,0c0.7,0,1-0.1,1-0.9c-0.1-2.5,0-4.9-0.1-7.4c0.2-0.1,0.3-0.1,0.5-0.2
			c2.3,0,4.6,0,6.9,0.1c1.1,0.1,1.3-0.3,1.3-1.3c0-13.5,0-27,0-40.4c0-0.2,0-0.4,0-0.6c0.1-0.5-0.1-0.7-0.7-0.7
			c-2.5,0-5,0.1-7.5,0.1c-0.2-0.1-0.3-0.1-0.5-0.2c0-2.7,0-5.5,0.1-8.2c0-0.8-0.2-1-1-1c-2.6,0-5.2,0-7.7,0l0,0
			c-0.3-0.3-0.2-0.8-0.2-1.1c0-2.1,0-4.2,0-6.3c0-0.6-0.1-1-0.8-0.9c-2.6,0.1-5.2,0.1-7.8,0.1c-0.1,0-0.2,0-0.2,0c0-2.7-0.1-5.3,0-8
			c0-0.7-0.2-0.9-0.9-0.9c-13.8,0-27.6,0-41.4,0c-0.7,0-0.9,0.1-0.9,0.9c0,2.7,0,5.3,0,8c-2.6,0-5.2,0-7.8,0c-0.8,0-1.1,0.2-1.1,1.1
			c0,2.5,0,4.9,0,7.4c-2.3,0-4.7,0.1-7,0c-1,0-1.4,0.2-1.4,1.3c0.1,2.7,0,5.3,0,8C-209.1,179.8-212,179.8-215,179.8z"/>
		<path class="st4" d="M-188.9,249c-8.4,0-16.8,0-25.2,0c-0.7,0-0.9-0.2-0.9-0.9c0-8.4,0-16.8,0-25.2c2.7,0,5.3,0,8-0.1
			c0.3,0,0.6-0.1,0.9,0.2l0,0c0,2.4,0,4.8,0,7.3c0,0.8,0.2,1,1,1c2.5,0,4.9,0,7.4,0c0,2.6,0.1,5.3,0.1,7.9c0,0.8,0.2,1,1,1
			c2.6,0,5.3,0,7.9,0C-188.8,243.1-188.6,246-188.9,249z"/>
		<path class="st5" d="M-188.9,249c0.3-2.9,0.1-5.9,0.1-8.8l0,0c13.9,0,27.8,0,41.8,0c0.4,0,0.9,0.2,1.3-0.2c0.1,0,0.1,0,0.2,0v0.1
			c-0.1,3-0.1,5.9,0,8.9C-160,249-174.5,249-188.9,249z"/>
		<path class="st5" d="M-206.1,223c-0.2-0.3-0.6-0.2-0.9-0.2c-2.7,0-5.3,0-8,0.1c0-14.4,0-28.7,0-43.1c3,0,5.9,0,8.9,0l0,0
			c0,0.2,0.1,0.3,0.1,0.5s0,0.5,0,0.7c0,13.5,0,26.9,0,40.4c0,0.3,0,0.6,0.1,0.8C-206.1,222.5-206.1,222.8-206.1,223z"/>
		<path class="st5" d="M-188.8,162.1c0-2.7,0-5.3,0-8c0-0.7,0.2-0.9,0.9-0.9c13.8,0,27.6,0,41.4,0c0.7,0,0.9,0.2,0.9,0.9
			c0,2.7,0,5.3,0,8v0.1c-0.1,0-0.1,0-0.2,0l0,0c-0.4-0.4-0.8-0.2-1.2-0.2C-160.9,162.1-174.9,162.1-188.8,162.1L-188.8,162.1z"/>
		<path class="st5" d="M-127.4,179.9c2.5,0,5,0,7.5-0.1c0.5,0,0.7,0.2,0.7,0.7c0,0.2,0,0.4,0,0.6c0,13.5,0,27,0,40.4
			c0,1-0.2,1.4-1.3,1.3c-2.3-0.1-4.6-0.1-6.9-0.1C-127.4,208.5-127.4,194.2-127.4,179.9z"/>
		<path class="st5" d="M-136.6,170.5c2.6,0,5.2,0,7.7,0c0.8,0,1,0.2,1,1c-0.1,2.7-0.1,5.5-0.1,8.2c-2.9,0.2-5.9,0.1-8.8,0.1
			c0-3-0.1-5.9-0.1-8.9h0.1c0.1-0.1,0.1-0.2,0.2-0.3C-136.6,170.6-136.6,170.6-136.6,170.5z"/>
		<path class="st5" d="M-136.7,231.3c0,2.7,0,5.3,0,8c0,0.5,0,0.9-0.7,0.9c-2.6,0-5.2,0-7.9-0.1c0-0.2-0.1-0.3-0.2-0.4h-0.1
			c0-2.8,0.1-5.6,0.1-8.4C-142.6,231.3-139.7,231.3-136.7,231.3L-136.7,231.3z"/>
		<path class="st5" d="M-206.1,179.8c0-2.7,0.1-5.3,0-8c0-1.2,0.4-1.4,1.4-1.3c2.3,0.1,4.7,0,7,0l0,0c0.2,3.1,0.1,6.2,0,9.3
			c-0.1,0-0.2,0-0.3,0.1C-200.7,179.9-203.4,179.8-206.1,179.8L-206.1,179.8z"/>
		<path class="st5" d="M-188.8,162.1L-188.8,162.1c0,0.1,0.1,0.2,0.1,0.2c0,0.9,0,1.8-0.1,2.7c-0.1,1.8,0.2,3.7-0.1,5.5
			c-3,0-5.9-0.1-8.9-0.1l0,0c0-2.5,0.1-4.9,0-7.4c0-0.8,0.2-1.1,1.1-1.1C-194,162.1-191.4,162.1-188.8,162.1z"/>
		<path class="st5" d="M-127.9,223c0,2.5,0,4.9,0.1,7.4c0,0.8-0.3,0.9-1,0.9c-2.6,0-5.3,0-7.9,0l0,0c0-2.8,0-5.6,0-8.4l0,0
			C-133.8,222.9-130.9,222.7-127.9,223z"/>
		<path class="st5" d="M-145.3,162.2c2.6,0,5.2,0,7.8-0.1c0.7,0,0.8,0.3,0.8,0.9c0,2.1,0,4.2,0,6.3c0,0.4-0.2,0.8,0.2,1.1
			c-0.1,0-0.2,0-0.4-0.1c-0.1-0.1-0.2-0.1-0.2,0c-0.1,0-0.1,0.1-0.2,0.1c-2.6,0-5.3-0.1-7.9-0.1c-0.1-0.1-0.2-0.2-0.2-0.2
			c-0.1-2.6-0.1-5.1,0-7.7C-145.4,162.5-145.3,162.4-145.3,162.2z"/>
		<path class="st6" d="M-127.9,223c-2.9-0.3-5.9-0.1-8.8-0.1c0.2-0.6,0.7-0.4,1.1-0.4c2.2,0,4.4,0,6.6,0c0.9,0,1.2-0.2,1.2-1.2
			c0-13.3,0-26.6,0-39.9c0-0.9-0.4-1.1-1.1-1c-2.2,0-4.5,0-6.7,0c-0.4,0-0.9,0.2-1-0.5c2.9,0,5.9,0.1,8.8-0.1
			c0.2,0.1,0.3,0.1,0.5,0.2c0,14.3,0,28.6,0,42.9C-127.6,222.8-127.8,222.9-127.9,223z"/>
		<path class="st6" d="M-137.4,170.6c0.1,0,0.1-0.1,0.2-0.1c0.1,0,0.2,0,0.2,0c0.1,0,0.2,0,0.4,0.1l0,0l0.1,0.1
			c-0.2,0-0.2,0.2-0.2,0.3h-0.1C-137,170.8-137.2,170.7-137.4,170.6z"/>
		<path class="st7" d="M-145.3,162.2c0,0.2-0.1,0.3-0.2,0.4h-0.1c0-0.1,0.1-0.2,0.1-0.3v-0.1C-145.5,162.2-145.4,162.2-145.3,162.2z
			"/>
		<path class="st7" d="M-145.6,239.6c0.2,0.1,0.2,0.2,0.2,0.4c-0.1,0-0.2,0-0.2,0v-0.1C-145.6,239.9-145.6,239.8-145.6,239.6z"/>
		<path class="st5" d="M-188.8,240.1L-188.8,240.1c-2.6,0-5.3,0-7.9,0c-0.8,0-1-0.2-1-1c0-2.6,0-5.3-0.1-7.9l0,0c3,0,5.9,0,8.9,0
			c0.3,0.4,0.1,0.9,0.1,1.3c0,2.5,0.1,4.9,0.1,7.4C-188.7,240-188.7,240.1-188.8,240.1z"/>
		<path class="st5" d="M-197.7,231.3c-2.5,0-4.9,0-7.4,0c-0.8,0-1-0.2-1-1c0.1-2.4,0-4.8,0-7.3c0,0.1,0,0.1,0.1,0.1
			c0.1-0.1,0.2-0.1,0.4-0.2c0.1,0,0.1-0.1,0.2-0.1c2.5,0,5,0.1,7.5,0.1c0.1,0.1,0.2,0.2,0.3,0.2
			C-197.6,225.8-197.6,228.6-197.7,231.3L-197.7,231.3z"/>
		<path class="st6" d="M-206,223.1c-0.1,0-0.1,0-0.1-0.1C-206.1,223-206.1,223-206,223.1c-0.1-0.3-0.1-0.6,0-0.9
			c0.2,0.2,0.4,0.4,0.6,0.6c-0.1,0-0.1,0.1-0.2,0.1C-205.8,222.9-206,222.8-206,223.1z"/>
		<path class="st6" d="M-188.8,240.1c0-0.1,0.1-0.2,0.1-0.2c1.6,0,3.3,0,4.9,0c12.6,0,25.3,0,37.9,0l0.1,0.1
			c-0.4,0.3-0.8,0.2-1.3,0.2C-160.9,240.1-174.9,240.1-188.8,240.1z"/>
		<path class="st6" d="M-145.6,239.6c0,0.1,0,0.2,0,0.3c-0.1,0-0.1,0-0.2,0l-0.1-0.1c0-0.1,0.1-0.1,0.1-0.2
			C-145.7,239.7-145.6,239.7-145.6,239.6z"/>
		<path class="st0" d="M-145.7,239.7c-0.1,0-0.1,0.1-0.1,0.2c-12.6,0-25.3,0-37.9,0c-1.6,0-3.3,0-4.9,0c0-2.5,0-4.9-0.1-7.4
			c0-0.4,0.1-0.9-0.1-1.3c-0.1-0.6-0.7-0.4-1.1-0.4c-1.9,0-3.7-0.1-5.6,0c-1.1,0.1-1.5-0.2-1.5-1.4c0.1-1.8,0-3.7,0-5.5
			c0-0.5,0.1-1-0.6-1c-0.1,0-0.2,0-0.3,0c-2.5,0-5-0.1-7.5-0.1c-0.2-0.2-0.4-0.4-0.6-0.6c0-0.3-0.1-0.6-0.1-0.8
			c0-13.5,0-26.9,0-40.4c0-0.2,0-0.5,0-0.7c0.5-0.3,1-0.2,1.5-0.2c2.2-0.1,4.4,0.2,6.6-0.2c0.1,0,0.2,0,0.3-0.1c0.7,0,0.7-0.5,0.7-1
			c0-2.2,0-4.4,0-6.6c0-1,0.2-1.4,1.3-1.4c1.9,0.1,3.8,0,5.7,0c0.4,0,0.9,0.2,1.1-0.4c0.3-1.8,0.1-3.7,0.1-5.5
			c0-0.9,0.1-1.8,0.1-2.7c13.9,0,27.8,0,41.7,0c0.4,0,0.8,0,1.2,0l0,0c0,0.1,0,0.2,0.1,0.3h0.1c-0.1,2.6-0.1,5.1,0,7.7
			c0,0.2,0.1,0.3,0.2,0.2c2.6,0,5.3,0.1,7.9,0.1c0.2,0.1,0.4,0.2,0.6,0.3c0,3,0.1,5.9,0.1,8.9c0.1,0.7,0.6,0.5,1,0.5
			c2.2,0,4.5,0,6.7,0c0.8,0,1.1,0.1,1.1,1c0,13.3,0,26.6,0,39.9c0,0.9-0.4,1.2-1.2,1.2c-2.2,0-4.4,0-6.6,0c-0.4,0-0.9-0.2-1.1,0.4
			l0,0c-0.6,0.2-0.4,0.7-0.4,1.1c0,1.9,0,3.9,0,5.8c0,0.8-0.3,1-1,1c-2.1,0-4.2,0-6.3,0c-0.4,0-0.9-0.2-1,0.5
			C-145.6,234.1-145.7,236.9-145.7,239.7z M-152.8,187.5L-152.8,187.5c0-0.6-0.1-1.3,0-1.9c0.1-1.2-0.4-1.5-1.5-1.5
			c-3.4,0.1-6.8,0-10.2,0c-0.8,0-1.1-0.2-1-1c0.1-0.9,0-1.8,0-2.7c0-0.4-0.1-0.7-0.6-0.8c-3-0.5-3.4-0.1-3.4,2.9c0,0.2,0,0.4,0,0.6
			c0.1,0.9-0.3,1.1-1.2,1.1c-4.5,0-9-0.1-13.5,0c-1.1,0-1.4-0.3-1.4-1.4c0.1-3,0-3-3-3c-0.9,0-1.1,0.3-1.1,1.1c0,3.5,0,7.1,0,10.6
			c-1.1,0-2.2,0-3.3,0c-0.7,0-1,0.2-1,1c0,1.5,0,3,0,4.4c0,2.8,0.3,2.6-2.4,2.5c-1,0-1.4,0.3-1.4,1.4c0.1,3.1,0.1,6.3,0,9.5
			c0,1.1,0.4,1.5,1.4,1.4c2.4-0.1,2.4,0,2.4,2.4c0,0.1,0,0.2,0,0.2c-0.1,0.7,0.2,1,1,1c1.1,0,2.2,0,3.3,0c0,0.9,0,1.8,0,2.8
			c0,0.6,0.2,0.9,0.8,0.8c0.8,0,1.5,0,2.3,0c0.7,0,1,0.2,1,0.9s0,1.4,0,2.2c-0.1,0.8,0.4,1.2,1.1,0.9c1-0.3,2.5,1,3-0.9
			c0.2-0.7,0-1.6,0-2.4c0-0.3,0-0.7,0.4-0.7c1.1,0,2.3-0.4,3.3,0.1c0.8,0.4,0.2,1.5,0.4,2.3c0,0.2,0,0.4,0,0.6c0,0.6,0.3,0.9,0.9,1
			c2.9,0.2,2.9,0.3,2.9-2.6v-0.1c-0.1-1,0.3-1.4,1.3-1.4c3.2,0.1,6.5,0.1,9.7,0c1,0,1.2,0.3,1.2,1.2c0,3.3-0.6,2.8,2.9,2.9
			c0.8,0,1.1-0.3,1.1-1.1c0-0.9-0.4-2.1,0.2-2.7c0.7-0.6,1.8-0.1,2.8-0.2c1.2-0.2,1.6,0.4,1.6,1.6c0,0.8-0.7,1.8,0.1,2.3
			c0.7,0.5,1.7,0.1,2.6,0.2c0.9,0.1,1.2-0.3,1.2-1.2c0-2.2,0-4.3,0-6.5c1,0,1.9-0.1,2.9,0c0.9,0.1,1.3-0.2,1.2-1.2
			c-0.1-2.5,0-5.1,0-7.6c0-3.3-0.6-2.9,3-2.9c0.8,0,1,0.3,1.1,1.1c0.1,2.5,0.1,2.5,2.7,2.5c0.2,0,0.4,0,0.6,0c0.5,0,0.7-0.2,0.7-0.7
			c0.4-3.2,0.2-3.3-2.9-3.4c-0.1,0-0.2,0-0.2,0c-0.8,0.1-0.9-0.3-0.9-1c0-0.9,0.4-2-0.2-2.6c-0.6-0.6-1.8-0.2-2.7-0.2
			s-1.2-0.3-1.2-1.2c0-1.8,0-3.5,0-5.3c0-0.4,0.1-1-0.5-1c-1.2,0-2.4-0.3-3.5,0.2c-0.1,0-0.2,0-0.2,0c0.5-1.3,0.2-2.6,0.2-3.9
			c0-0.5-0.3-0.6-0.8-0.6C-150.7,187.5-151.8,187.5-152.8,187.5z"/>
		<path class="st6" d="M-198,179.9c-2.2,0.4-4.4,0.1-6.6,0.2c-0.5,0-1-0.1-1.5,0.2c0-0.2-0.1-0.3-0.1-0.5
			C-203.4,179.8-200.7,179.9-198,179.9z"/>
		<path class="st6" d="M-145.8,162.3c-0.4,0-0.8,0-1.2,0c-13.9,0-27.8,0-41.7,0c0-0.1-0.1-0.2-0.1-0.2c13.9,0,27.9,0,41.8,0
			C-146.6,162.1-146.1,161.9-145.8,162.3z"/>
		<path class="st6" d="M-145.7,162.6c0-0.1,0-0.2-0.1-0.3c0.1,0,0.1,0,0.2,0C-145.6,162.4-145.7,162.5-145.7,162.6z"/>
		<path class="st7" d="M-136.7,171c0-0.2-0.1-0.3,0.2-0.3C-136.6,170.8-136.6,170.9-136.7,171z"/>
		<path class="st6" d="M-145.6,231.3c0.1-0.7,0.6-0.5,1-0.5c2.1,0,4.2,0,6.3,0c0.8,0,1.1-0.2,1-1c0-1.9,0-3.9,0-5.8
			c0-0.4-0.2-0.9,0.4-1.1c0,2.8,0,5.6,0,8.4C-139.7,231.3-142.6,231.3-145.6,231.3z"/>
		<path class="st6" d="M-188.9,170.6c-0.2,0.6-0.7,0.4-1.1,0.4c-1.9,0-3.8,0.1-5.7,0c-1.1-0.1-1.3,0.3-1.3,1.4c0.1,2.2,0,4.4,0,6.6
			c0,0.5,0,1-0.7,1c0.1-3.1,0.2-6.2,0-9.3C-194.8,170.5-191.8,170.5-188.9,170.6z"/>
		<path class="st7" d="M-137,170.5c-0.1,0-0.2,0-0.2,0C-137.1,170.4-137.1,170.3-137,170.5z"/>
		<path class="st7" d="M-145.3,170.5c-0.2,0-0.3-0.1-0.2-0.2C-145.5,170.3-145.4,170.4-145.3,170.5z"/>
		<path class="st6" d="M-197.7,222.9c0.8,0,0.6,0.6,0.6,1c0,1.8,0.1,3.7,0,5.5c-0.1,1.2,0.4,1.5,1.5,1.4c1.9-0.1,3.7,0,5.6,0
			c0.4,0,0.9-0.2,1.1,0.4c-3,0-5.9,0-8.9,0c0.2-2.7,0.1-5.4,0-8.1C-197.7,223-197.7,223-197.7,222.9z"/>
		<path class="st7" d="M-206,223.1c0-0.3,0.2-0.2,0.4-0.2C-205.8,223-205.9,223-206,223.1z"/>
		<path class="st7" d="M-197.7,222.9c0,0.1,0,0.2-0.1,0.3c-0.1-0.1-0.2-0.2-0.3-0.2C-197.9,222.9-197.8,222.9-197.7,222.9z"/>
		<path class="st5" d="M-189.6,215.2c-1.1,0-2.2,0-3.3,0c-0.7,0-1.1-0.2-1-1c0-0.1,0-0.2,0-0.2c0-2.4,0-2.4-2.4-2.4
			c-1.1,0-1.5-0.3-1.4-1.4c0.1-3.1,0.1-6.3,0-9.5c0-1.1,0.4-1.4,1.4-1.4c2.7,0,2.4,0.3,2.4-2.5c0-1.5,0-3,0-4.4c0-0.7,0.3-1,1-1
			c1.1,0,2.2,0,3.3,0l0,0c0,1.3,0,2.6,0,3.9c0,1.2,0,2.3,0,3.5c0,0.3,0,0.7,0.4,0.7c1.3,0,2.5,0.3,3.8-0.2c2.6,0,5.3,0,7.9,0
			c0,0.1,0.1,0.1,0.1,0.2c0,3.5-0.1,7,0,10.5c0,1.1-0.3,1.5-1.5,1.5c-3.2-0.1-6.4,0-9.6,0c-1,0-1.3,0.3-1.2,1.2
			S-189.6,214.4-189.6,215.2L-189.6,215.2z M-181.2,205.3c0-2.2,0-2.2-2.1-2.2c-2.3,0-2.3,0-2.3,2.3s0,2.3,2,2.3
			C-181.2,207.6-181.2,207.6-181.2,205.3z M-189.6,205.3c0-0.3,0-0.6,0-1c0.1-1-0.2-1.5-1.3-1.3c-0.2,0-0.4,0-0.6,0
			c-2.4,0-2.4,0-2.4,2.4s-0.3,2.1,2,2.1C-189.6,207.6-189.6,207.6-189.6,205.3z"/>
		<path class="st5" d="M-148.9,215.2c0,2.2,0,4.3,0,6.5c0,0.9-0.3,1.3-1.2,1.2s-1.9,0.3-2.6-0.2c-0.8-0.6-0.1-1.5-0.1-2.3
			c0-1.2-0.3-1.7-1.6-1.6c-0.9,0.1-2.1-0.4-2.8,0.2c-0.7,0.6-0.2,1.8-0.2,2.7c0,0.8-0.3,1.1-1.1,1.1c-3.5-0.1-2.9,0.4-2.9-2.9
			c0-0.9-0.2-1.2-1.2-1.2c-3.2,0.1-6.5,0.1-9.7,0c-1.1,0-1.5,0.4-1.3,1.4v0.1c0,2.8,0,2.8-2.9,2.6c-0.7-0.1-0.9-0.3-0.9-1
			c0-0.2,0-0.4,0-0.6c-0.1-0.8,0.5-1.9-0.4-2.3c-1-0.5-2.2-0.2-3.3-0.1c-0.4,0-0.4,0.4-0.4,0.7c0,0.8,0.2,1.6,0,2.4
			c-0.5,1.8-2,0.6-3,0.9c-0.7,0.2-1.1-0.1-1.1-0.9c0.1-0.7,0-1.4,0-2.2c0.1-0.7-0.3-1-1-0.9c-0.8,0-1.5,0-2.3,0
			c-0.6,0-0.9-0.2-0.8-0.8c0-0.9,0-1.8,0-2.8l0,0c5.3,0,10.5,0,15.8,0c7,0,14,0,21,0C-151.5,215.2-150.2,215.2-148.9,215.2
			L-148.9,215.2z"/>
		<path class="st5" d="M-189.6,191.5c0-3.5,0-7.1,0-10.6c0-0.8,0.2-1.1,1.1-1.1c3,0,3.1-0.1,3,3c0,1.1,0.3,1.4,1.4,1.4
			c4.5-0.1,9,0,13.5,0c0.9,0,1.3-0.2,1.2-1.1c0-0.2,0-0.4,0-0.6c0-3,0.4-3.3,3.4-2.9c0.5,0.1,0.6,0.4,0.6,0.8c0,0.9,0,1.8,0,2.7
			c0,0.8,0.3,1,1,1c3.4,0,6.8,0,10.2,0c1.1,0,1.6,0.3,1.5,1.5c-0.1,0.6,0,1.3,0,1.9c-4.2,0-8.4,0-12.7,0c-5.4,0-10.7,0-16.1,0
			c-1,0-2.1,0-3.1,0c-0.8,0-1,0.3-0.9,1c0,1,0,1.9,0,2.9C-186.9,191.2-188.2,191.7-189.6,191.5L-189.6,191.5z"/>
		<path class="st8" d="M-165.4,187.5c4.2,0,8.4,0,12.7,0l0,0c0,1.1,0,2.2,0,3.3c-0.1,1,0.4,1.3,1.3,1.2c0.8-0.1,1.6,0,2.4,0
			c0.1,0,0.1,0,0.2,0c0,2.5,0,5.1,0,7.6c-1.8,0-3.5,0-5.3,0c-3.4,0-2.8,0.1-2.8-2.8c0-0.2,0-0.3,0-0.5c0.1-0.8-0.3-1.1-1.1-1
			c-0.8,0-1.6,0-2.4,0c-0.6,0-0.9-0.2-0.9-0.8c0-0.8,0.4-1.9-0.2-2.4c-0.6-0.5-1.7-0.1-2.6-0.2c-0.1,0-0.2,0-0.2,0
			c-0.8,0.1-1.1-0.3-1-1.1C-165.4,189.8-165.4,188.6-165.4,187.5z"/>
		<path class="st5" d="M-149,199.6c0-2.5,0-5.1,0-7.6c1.2-0.5,2.4-0.2,3.5-0.2c0.7,0,0.5,0.6,0.5,1c0,1.8,0,3.5,0,5.3
			c0,0.9,0.3,1.2,1.2,1.2s2-0.4,2.7,0.2c0.6,0.6,0.2,1.7,0.2,2.6c0,0.7,0.2,1.1,0.9,1c0.1,0,0.2,0,0.2,0c3.1,0,3.3,0.2,2.9,3.4
			c-0.1,0.5-0.3,0.7-0.7,0.7c-0.2,0-0.4,0-0.6,0c-2.6,0-2.6,0-2.7-2.5c0-0.7-0.3-1.1-1.1-1.1c-3.6,0.1-3-0.4-3,2.9
			c0,2.5-0.1,5.1,0,7.6c0,1-0.3,1.3-1.2,1.2c-1-0.1-1.9,0-2.9,0l0,0C-148.9,210-149,204.8-149,199.6z"/>
		<path class="st5" d="M-149.2,192c-0.8,0-1.6,0-2.4,0c-0.9,0.1-1.3-0.3-1.3-1.2c0.1-1.1,0-2.2,0-3.3c1,0,2.1,0,3.1,0
			c0.5,0,0.8,0.1,0.8,0.6C-149,189.4-148.7,190.7-149.2,192z"/>
		<path class="st0" d="M-149,199.6c0,5.2,0,10.4,0,15.6c-1.3,0-2.6,0-3.9,0c0-0.5,0-1,0-1.6c0-2.8,0.3-2.5-2.5-2.5
			c-1.7,0-1.7,0-1.6-1.7c0.2-1.7,0-1.9-1.7-1.9c-2.8,0-5.7,0-8.5,0c-2.7,0-2.8,0-2.4,2.7c0.1,0.8-0.2,0.9-0.8,0.9
			c-0.9,0-1.8,0-2.7,0c-0.6,0-0.9,0.2-0.8,0.8c0,1.1,0,2.1,0,3.2c-5.3,0-10.5,0-15.8,0c0-0.8,0.1-1.6,0-2.4
			c-0.1-0.9,0.2-1.2,1.2-1.2c3.2,0.1,6.4,0,9.6,0c1.2,0,1.5-0.4,1.5-1.5c-0.1-3.5,0-7,0-10.5c1,0,2.1,0,3.1,0c0.4,0,0.8,0.1,0.8-0.5
			c0-1.2,0.3-2.6-0.2-3.5c-0.4-0.7-1.9-0.2-2.9-0.2h-0.1c-0.6-0.1-0.8,0.2-0.7,0.8c0,1.1,0,2.1,0,3.2c-2.6,0-5.3,0-7.9,0
			c0-1-0.1-2.1,0-3.1c0-0.7-0.2-0.9-0.9-0.9c-1.1,0-2.2,0-3.2,0c0-1.3,0-2.6,0-3.9c1.4,0.2,2.7-0.4,4.1-0.2c1.1,0.5,2.3,0.2,3.5,0.2
			c0.5,0,0.6-0.5,0.6-0.9c0-1,0-2.1,0-3.1c5.4,0,10.7,0,16.1,0c0,1.2,0,2.3,0,3.5c0,0.8,0.3,1.1,1,1.1c0.1,0,0.2,0,0.2,0
			c0.9,0.1,1.9-0.3,2.6,0.2c0.6,0.5,0.2,1.6,0.2,2.4c0,0.6,0.3,0.8,0.9,0.8c0.8,0,1.6,0,2.4,0c0.7,0,1.1,0.3,1.1,1
			c0,0.2,0,0.3,0,0.5c0,2.9-0.6,2.8,2.8,2.8C-152.5,199.7-150.7,199.7-149,199.6z"/>
		<path class="st9" d="M-181.2,205.3c0,2.3,0,2.3-2.3,2.3c-2,0-2,0-2-2.3s0-2.3,2.3-2.3C-181.2,203-181.2,203-181.2,205.3z"/>
		<path class="st9" d="M-189.6,205.3c0,2.3,0,2.3-2.3,2.3c-2.4,0-2,0.3-2-2.1c0-2.4,0-2.4,2.4-2.4c0.2,0,0.4,0,0.6,0
			c1.1-0.2,1.4,0.3,1.3,1.3C-189.6,204.7-189.6,205-189.6,205.3z"/>
		<path class="st7" d="M-189.6,195.4c1.1,0,2.2,0,3.2,0c0.7,0,0.9,0.2,0.9,0.9c0,1,0,2.1,0,3.1c-1.2,0.5-2.5,0.2-3.8,0.2
			c-0.4,0-0.4-0.4-0.4-0.7C-189.6,197.8-189.6,196.6-189.6,195.4z"/>
		<path class="st7" d="M-177.5,199.4c0-1.1,0-2.1,0-3.2c0-0.5,0.2-0.8,0.7-0.8h0.1c1,0.1,2.5-0.5,2.9,0.2c0.5,0.9,0.2,2.3,0.2,3.5
			c0,0.6-0.4,0.5-0.8,0.5c-1,0-2.1,0-3.1,0C-177.4,199.6-177.5,199.5-177.5,199.4z"/>
		<path class="st8" d="M-173.8,215.2c0-1.1,0-2.1,0-3.2c0-0.6,0.2-0.9,0.8-0.8c0.9,0,1.8,0,2.7,0c0.6,0,0.9-0.1,0.8-0.9
			c-0.3-2.7-0.3-2.7,2.4-2.7c2.8,0,5.7,0,8.5,0c1.7,0,1.8,0.2,1.7,1.9c-0.2,1.7-0.2,1.7,1.6,1.7c2.8,0,2.5-0.3,2.5,2.5
			c0,0.5,0,1,0,1.6C-159.8,215.2-166.8,215.2-173.8,215.2z"/>
		<path class="st8" d="M-181.5,187.5c0,1,0,2.1,0,3.1c0,0.4-0.1,0.9-0.6,0.9c-1.2,0-2.4,0.3-3.5-0.2c0-1,0-1.9,0-2.9
			c0-0.7,0.2-1,0.9-1C-183.6,187.5-182.5,187.5-181.5,187.5z"/>
	</g>
</g>
<g id="H46v9J.tif">
	<g>
		<path d="M239.5,0.3c2.6,0,5.2,0,7.8,0c0.5,0.1,1,0.3,1.5,0.3c6.8,0.8,13.2,2.8,18.8,6.7c13.1,9.3,16.7,22.7,15.3,37.9
			c-0.3,3.4,0.3,6.2,2.4,8.8c1.8,2.3,4,4,6.4,5.5c4.1,2.7,7.9,5.8,11.5,9.2c9.6,9.2,16.1,20.5,21.7,32.4c2.5,5.2,4.6,10.7,6.5,16.2
			c7.6,22.1,11.2,44.7,7.6,68c-2.2,14-7,27-15.5,38.5c-5.8,7.9-12.4,15-20,21.3c-10.8,9-10.1,23.9,1.6,31.8c2.7,1.8,5.1,3.9,7.6,6
			c3.9,3.3,5.2,7.4,4.7,12.3c-0.3,2.4-1,3.3-3.4,3.7c-0.6,0.1-1.1,0.1-1.7,0.1c-3.3,0.3-6.5,1.1-8.7,3.9c-4.4,5.5-10.2,7-16.8,6.1
			c-7.5-1-14.7-3.2-21.8-5.6c-3.3-1.1-4.8-3.9-4-7.4c1.4-6.1,3.7-11.7,8.6-16c2.1-1.8,3.1-4.2,3.3-7c0.3-5.6-3.6-8.5-8.8-6.5
			c-0.2,0.1-0.3,0.1-0.5,0.2c-7.2,2.7-14.3,5.8-21.6,8.4c-10.3,3.6-20.8,6-31.9,5.2c-1.7-0.1-3.4,0.3-5,0.9
			c-3.6,1.2-4.6,4.4-2.5,7.5c1.5,2.1,3.7,3.3,6,4.3c2.1,0.9,4.2,1.5,6.2,2.6c4,2.2,5.6,5.4,4.9,9.9c-0.3,2.3-1.7,3.9-4.1,4.1
			c-6.2,0.4-11.1,3.3-15.3,7.6c-1.8,1.8-4,2.6-6.6,2.4c-6.4-0.6-12.7-1.4-19-2.4c-5.1-0.8-6.4-3-4.4-7.8c0.1-0.2,0.1-0.3,0.2-0.5
			c2.5-5.6,5.4-11.1,9.3-15.9c0.9-1.1,1.6-2.3,2-3.7c0.9-3.3-1.3-6.3-4.7-6.5c-1.1,0-2.2,0-3.2,0.1c-10.6,1.2-21.2,1.2-31.8,1.1
			c-3,0-6-0.3-9,0.2c-3.6,0.6-5.9,2.7-7,6.1c-1.1,3.3-0.5,6.4,2,8.7c5.5,5.2,6.2,11.7,5.1,18.6c-0.8,4.7-3.7,6.3-8.3,4.7
			c-1.8-0.6-3.6-1.3-5.5-1.8c-5.3-1.5-10.7-1.5-16.2-1.4c-3.4,0.1-5.9-1.3-7.5-4.3c-0.7-1.3-1.5-2.5-2.4-3.7
			c-1.6-2.2-3.7-4.2-4.7-6.8c-1.6-4.1-3.8-7.5-7.7-9.9c-1.5-1-1.7-2.7-1.1-4.4c0.8-2.4,2.7-3.4,4.9-3.8c4-0.8,7.9-1.7,11.9-2.7
			c1.3-0.4,2.4-1,2.5-2.6c0-1.4-1-2-2.2-2.5c-1.1-0.4-2.1-0.8-3.1-1.2c-6.6-2.7-13.3-5.3-20.3-7c-4.4-1-7.5,0.4-9.7,4.2
			c-1.4,2.4-2.5,4.9-3.4,7.6c-1.4,4.4-1.7,8.8,0,13.1c1.8,4.6,2.1,9.2,1.8,14c-0.3,5.4-3.3,7.7-8.6,6.8c-5.7-0.9-11.4-1.5-17.2-1.2
			c-4.4,0.3-7.3-1.7-9.3-5.4c-1.2-2.2-2.4-4.5-3.7-6.7c-2.6-4.2-6.1-7.1-11.1-7.9c-1.6-0.3-2.2-1.2-2.2-2.7c0-1.5,0.2-2.9,0.4-4.4
			c0.5-4.6,1.9-5.9,6.4-6.6c3.7-0.6,7.4-0.6,11-1.9c7.7-2.6,11.6-8.5,14.1-15.8c1-3,0.5-5.3-1.8-7.5c-3.9-3.6-7.8-7.4-11.7-11.1
			c-5.8-5.4-10.8-11.4-14.6-18.4c-6.8-12.7-10.2-26.5-12.3-40.6c-0.5-3.1-0.7-6.2-1-9.2c0-4.6,0-9.3,0-13.9c0.1-0.7,0.3-1.4,0.3-2.1
			c0.4-7.3,1.4-14.6,2.9-21.8c3.2-15.2,9.2-29.4,16.9-42.8c10.8-18.9,25.8-33.8,45.2-44c15.9-8.4,32.9-13.1,50.5-15.8
			c4.5-0.7,5.5-1.6,6.7-6.1c3-10.9,9.7-18.7,20.3-23c5.3-2.1,10.8-2.7,16.4-3c6.4-0.4,12.7,0.1,18.6,2.7c7.6,3.2,12.7,9,16.7,16
			c0.7,1.3,1.4,2.6,2.4,3.7c3,3.1,7.5,2.3,9.4-1.5c0.3-0.6,0.5-1.1,0.7-1.7c5-11.3,13.4-18.5,25.3-21.6
			C234.9,1.1,237.2,0.8,239.5,0.3z M309.9,124.9c-0.1-0.6-0.2-0.9-0.3-1.2c-2.4-6.2-4.7-12.3-7.4-18.4
			c-4.7-10.4-11.3-19.2-20.7-25.8c-2.9-2-5.6-4.3-8.2-6.6c-3.8-3.4-6.6-3.7-11.1-1.3c-5.5,3-11.2,5-17.5,5.5
			c-14.6,1.2-31.1-5.7-35.4-23.4c-0.6-2.4-1.3-4.7-2.7-6.7c-1.2-1.7-2.7-2.7-4.8-2.5c-2.9,0.3-4.2,1.7-4.6,5.1
			c-0.7,6.5-2.5,12.6-6.7,17.8c-15.5,19.3-46.7,18.1-60.2-4.2c-0.7-1.2-1.4-2.3-2.2-3.4c-1.9-2.6-4.5-3.6-7.6-2.9
			c-8.3,1.8-16.6,3.7-24.6,6.7C76.4,71,59.3,81.6,46.7,98.6c-3.9,5.3-7.5,10.8-10.4,16.6c-7.1,14.2-11.4,29.3-13.3,45.1
			c-1.4,11.6-1,23.1,2,34.5c4.3,16.7,13.7,30.3,26.4,41.7c1.9,1.7,2.7,1.7,4.7,0c1.9-1.5,3.5-3.3,5.7-4.5c5.6-3.2,13-1.1,16.1,4.6
			c0.9,1.7,1.4,3.6,0.9,5.6c-0.9,4,0.5,6.7,3.9,8.9c5,3.2,10.5,4.9,16.2,6.3c12,2.9,24.2,4.6,36.5,5.5c12,0.8,23.9,0.8,35.9,0.4
			c3.6-0.1,4.4-1,4.5-4.7c0.1-3.2,0.2-6.4,1.6-9.4c1.8-3.9,5.3-6,9.5-5.8c4.1,0.2,6.1,2.8,7.4,6.3c0.9,2.5,1.5,5.1,2.3,7.6
			c1.2,4.1,2.9,5.1,7,4.4c2.8-0.5,5.6-1,8.3-1.5c13-2.4,25.6-5.8,37.5-11.7c4-2,8.2-3.8,12.5-5.2c11.2-3.5,20.8-9.6,29.3-17.4
			c9.4-8.5,17.1-18.2,21.9-30c5.8-14.2,6.1-28.9,4.1-43.8c-0.1-0.6-0.4-1.1-0.8-1.5c-5.5-5.7-11.6-10.2-19.6-11.6
			c-2.4-0.4-4.9-0.8-7.3-1.3c-4.5-0.9-7.5-4.8-7.1-9.2c0.4-4.4,4-7.6,8.6-7.7c1.6,0,3.2,0.3,4.7,0.5
			C300.7,121.9,305.2,123.1,309.9,124.9z M266.4,41.8c0-16.8-14.5-28.4-30.9-24.8c-14.2,3.1-22.3,17.5-18.2,32.1
			c3.3,11.8,13.7,19.5,25.1,18.6C256.1,66.7,266.4,55.5,266.4,41.8z M161.8,17.1c-12,0.1-21.2,6.6-24.6,17.4
			c-6,19.1,9.1,31.6,20.7,33c17,2,30.7-14.1,28-30.7C184.2,25.3,173.6,17,161.8,17.1z"/>
		<path d="M297.1,179.2c-5.2-0.7-10.4-1.3-15.6-2c-23-3.2-46-5.3-69.2-4.2c-14.8,0.7-29.4,3.1-43.5,7.9c-2,0.7-4.1,1.3-6.3,1.2
			c-2.7-0.1-4.7-1.3-6.1-3.7c-1-1.8-1.5-3.7-1.6-5.6c-0.2-3.3,1.4-5.6,4.2-7.2c2.9-1.6,6-2.5,9.1-3.5c10.7-3.4,21.7-5.1,32.9-6.1
			c16.4-1.5,32.7-1.4,49.1-0.6c14,0.7,27.9,2.4,41.7,4.5c2.6,0.4,5.2,0.8,7.9,1.3c0.2,0,0.4,0.1,0.7,0.2c5.1,1.2,7.4,3.5,7.5,7.2
			c0.1,4.6-3,8.9-7.3,10.1C299.4,179,298.3,179.2,297.1,179.2z"/>
		<path d="M94,178.4c-0.2-14.4,4.2-27.3,13.2-38.4c4.6-5.7,10.1-10.7,17-13.6c2-0.9,4.1-1.5,6.4-1.3c4,0.3,7.1,3,7.8,6.8
			c0.7,3.8-1,7.8-4.7,9.2c-8.5,3.2-13.7,9.7-17.7,17.4c-4.4,8.5-5.5,17.5-3.8,26.8c0.3,1.3,0.7,2.6,1.1,3.9
			c1.5,4.8-0.5,9.5-4.6,11.1c-4.9,1.9-9.7-0.1-11.8-4.9C94.8,189.9,94.1,184.2,94,178.4z"/>
		<path d="M257.2,41.6c0,6.9-5.9,12.7-13,12.7c-6.9,0-12.9-5.9-12.9-12.6c0-7.1,5.9-13.2,12.9-13.2
			C251.4,28.5,257.2,34.4,257.2,41.6z"/>
		<path d="M158.7,54.7c-7.8,0-13-4.9-13.1-12.2c0-7.6,5.6-13.2,13.3-13.3c7.1,0,12.6,5.3,12.7,12.4
			C171.6,49.7,166.8,54.7,158.7,54.7z"/>
	</g>
</g>
</svg>
