<?xml version="1.0" encoding="utf-8"?>
<!-- Generator: Adobe Illustrator 27.9.5, SVG Export Plug-In . SVG Version: 9.03 Build 54986)  -->
<svg version="1.1" id="Warstwa_1" xmlns="http://www.w3.org/2000/svg" xmlns:xlink="http://www.w3.org/1999/xlink" x="0px" y="0px"
  viewBox="0 0 340.2 323.1" style="enable-background:new 0 0 340.2 323.1;" xml:space="preserve">
<style type="text/css">
 .st0{fill:#FFFFFF;}
</style>
<g id="EYES_COLOR">
 <ellipse class="st0" cx="244.3" cy="39.2" rx="29.9" ry="29.8"/>
 <ellipse class="st0" cx="160.9" cy="41" rx="29.9" ry="29.8"/>
</g>
<path id="BODY_x5F_COLOR" class="st0" d="M268.4,246.7c-12,3.9-22.9,10.6-35.2,13.9c-8.7,2.3-17.5,4.1-26.4,5.7
 c-5.9,1.1-10.5,1.6-11.9-4.1c-0.5-2-0.7-4.8-1.4-6.7c-1.6-4.5-1.6-8.6-6.9-8c-5.1,0.6-8,4-9.2,8.7c-0.6,2.5-0.8,5.1-0.7,7.7
 c0,3.1-1.4,4.2-4.4,4.3c-27.1,0.9-54.1-0.1-80.4-7.5c-3.8-1.1-7.5-2.6-10.9-4.7c-3.6-2.2-6-4.2-5-9.4c1.1-5.2-2.4-9.4-7.1-11.5
 c-5.3-2.5-7.1,1.4-11.2,5.1c-5,4.6-7.7,2.5-12.7-2.2c-28-26.5-32.5-59.3-23.9-94.4c12.4-50.7,44.3-79,98.1-89.9
 c4.9-1,10,1.4,12.1,5.2c11.6,20.8,34,24.9,52.6,9.8c6.9-5.6,9.6-12.3,10.8-21.1c0.5-3.5,4.2-6.7,9.5-6.9c5.1-0.2,6.6,7.2,8,11.6
 c6.6,22,31.5,26.4,51.6,14.8c4.8-2.8,10.6-0.4,14.5,3.1c4.2,3.8,9,7,13.4,10.7c8.9,7.4,14.5,16.9,18.8,27.5
 c7.8,19.1,15.2,38.2,14.9,59.3c0.5,22.7-8.1,41.7-24.1,57.5C291.7,234.7,281.4,242.4,268.4,246.7z"/>
<g id="BODY_OUTLINE">
 <path d="M305,277.3c-11.5-7.4-12.5-23.2-1.8-31.8c25.4-20.4,37.3-47.4,36.9-79.3c-0.2-23-6.3-45-15.9-66.2
  c-7.5-16.5-17.4-30.5-32.6-40.5c-6.3-4.1-10.3-8.9-8.6-15c0.8-13.4-1.8-23.8-9.9-32.7c-15.1-16.5-52.4-18.1-65.5,10.2
  c-1.2,2.7-1.8,6.2-6.3,6.1c-4-0.1-5.3-2.9-6.8-5.7c-5.8-10.4-14.2-17.1-26.3-18.4c-6-0.6-12-0.2-18,0.8
  c-14.2,2.3-25,12.4-28.2,26.5c-0.7,3.1-2.8,4.1-5.7,4.6c-37.6,5.9-70.3,20.2-92.1,53.3c-12.4,18.9-20.5,39.3-23.2,61.9
  c-1.8,14.7-1.7,29.3,1.4,43.7c3.7,16.9,8.9,33.4,21.6,46.3c5,5.1,10.4,9.9,15.5,14.9c1.8,1.7,3.1,3.3,2.3,6.1
  c-2.8,10.2-8.6,17.1-19.7,18.4c-2.5,0.3-5,0.5-7.4,1c-5.1,1-4.7,5.3-5.1,9.1c-0.2,1.9-0.4,4,2,4.4c8.1,1.3,11.3,7.6,14.5,13.8
  c1.9,3.6,4.3,6.4,8.7,6.2c6.3-0.3,12.6,0.2,18.9,1.2c4.7,0.8,7.8-1.8,8-6.5c0.3-4.5,0.4-8.9-1.4-13.2c-3.2-7.8-1-14.9,2.9-21.8
  c2.4-4.2,5.8-5.5,10.5-4.3c7.3,1.9,14.2,4.6,21.1,7.5c1.7,0.7,4,1,3.9,3.1c-0.1,2.6-2.8,2.6-4.6,3.1c-3.5,1-7.1,1.6-10.7,2.4
  c-2.3,0.5-3.8,1.9-4.3,4.3c-0.5,2.3,0.8,3.6,2.6,4.9c1.7,1.3,4.1,2.7,4.5,4.5c1.5,6,6.2,9.7,9,14.8c1.8,3.3,4.4,4.5,8.1,4.4
  c6.8-0.3,13.5,0.2,20.1,2.9c5.8,2.4,9-0.5,9.4-6.9c0.3-6-0.4-11.4-5.2-15.9c-2.9-2.8-3.8-6.7-1.8-10.6c2-3.8,5.3-4.9,9.6-4.9
  c12.7,0.2,25.4,0.3,38-1c2.8-0.3,6-0.6,7.4,2.7c1.3,2.9,0,5.5-1.8,7.8c-3.8,4.7-6.6,10-9,15.4c-2.4,5.2-1.3,7.5,4.2,8.5
  c6.5,1.1,13.1,1.9,19.7,2.5c2.1,0.2,4.2-0.7,5.8-2.4c4-4.1,8.7-7.1,14.7-7.6c3.3-0.2,4.8-2.1,4.9-5.6c0.1-5.6-3.4-7.9-7.8-9.7
  c-3.2-1.3-6.7-2.2-9.1-5c-2.9-3.4-1.8-7.3,2.5-8.4c1.6-0.4,3.3-0.8,4.9-0.7c19.1,1.4,35.6-6.8,52.6-13.3c2.4-0.9,4.8-2.2,7-0.5
  c2.1,1.7,3.1,4.3,2.8,7.1c-0.3,2.8-1.5,5-3.6,6.9c-4.5,3.9-6.6,9.2-8.1,14.7c-1,3.7,0,7.2,4,8.5c6.2,2,12.4,3.8,18.7,5.1
  c7.3,1.4,14.4,1.1,19.6-5.5c2.3-2.9,5.7-3.9,9.3-4.1c2-0.1,4.3-0.3,4.6-2.9c0.5-4.2,0.3-8.3-2.9-11.6
  C311.5,282,308.4,279.5,305,277.3z M240.5,16c14.9-0.2,26,10.7,26,25.6c0,14.1-11.2,25.8-25,25.9c-14.5,0.2-25.4-11.4-25.5-26.9
  C216.1,27.4,227.2,16.2,240.5,16z M162,16.8c13.1,0.1,24.1,10.6,24.2,23.1c0.1,15.2-11.6,27.7-25.7,27.7c-13-0.1-25-11.8-24.9-24.4
  C135.7,27.4,146.4,16.7,162,16.8z M264,242.7c-11.5,3.8-22.1,10.3-33.9,13.4c-8.4,2.2-16.9,4-25.4,5.5c-5.7,1-7.1-0.1-8.5-5.6
  c-0.5-1.9-1-3.9-1.7-5.7c-1.5-4.3-4.1-7.4-9.2-6.7c-4.9,0.6-7.7,3.8-8.8,8.4c-0.6,2.4-0.7,4.9-0.7,7.4c0,3-1.4,4.1-4.2,4.2
  c-26.1,0.8-52.1-0.1-77.4-7.3c-3.7-1.1-7.2-2.5-10.5-4.5c-3.4-2.1-5.8-4-4.8-9c1.1-5-2.3-9-6.8-11.1c-5.1-2.4-9.8-0.5-13.7,3.2
  c-4.9,4.4-4.5,4.2-9.3-0.3c-27-25.5-31.3-57.1-23-90.9c11.9-48.8,42.6-76.1,94.5-86.6c4.7-1,7.1,1.7,9.1,5.3
  c11.2,20.1,37.8,25.1,55.8,10.5c6.7-5.4,10.4-12.4,11.5-20.9c0.5-3.4,0.4-7.3,5.4-7.5c4.9-0.2,6.4,6.9,7.7,11.2
  c6.3,21.2,32.7,27.3,52.1,16.2c4.6-2.7,7.8-2.3,11.5,1.1c4,3.7,8.6,6.8,12.9,10.3c8.5,7.1,14,16.3,18.1,26.5c7.5,18.4,14.6,36.8,14.3,57.1c0.5,21.9-7.8,40.1-23.3,55.4C286.4,231.1,276.5,238.6,264,242.7z"/>
 <path d="M298.9,160.8c-22.6-3.8-45.3-6.3-68.2-6.1c-4,0-8-0.1-12,0c-19.6,0.8-39,2.4-57.5,9.6c-5.2,2-7.3,5.2-6.4,9.8
  c1.3,6.9,5.6,9.5,13.1,6.9c29.3-10.1,59.5-9.4,89.7-6.8c13,1.1,25.8,3.3,38.8,4.7c6.2,0.7,11-3.3,11.7-9.1
  C308.6,164.9,305.8,162,298.9,160.8z"/>
 <path d="M244.2,54.1c7.2,0,13.2-5.9,13-13c-0.1-7.2-6-12.9-13.1-13c-6.9,0-12.9,6.2-12.8,13.3C231.3,48.2,237.4,54.1,244.2,54.1z"
  />
 <path d="M158.2,54.5c8.1,0.1,13.1-4.8,13.1-13c0-7.2-5.5-12.7-12.7-12.6c-7.8,0.1-13.3,5.5-13.3,13.3
  C145.3,49.4,150.5,54.5,158.2,54.5z"/>
</g>
</svg>